/* XPM */
static char * nixos_logo_xpm[] = {
"29 25 37 1",
" 	c None",
".	c #5277C3",
"+	c #7EBAE4",
"@	c #7EB9E4",
"#	c #71A6DA",
"$	c #5D88CB",
"%	c #77AFDE",
"&	c #577EC6",
"*	c #5B85C9",
"=	c #5A84C9",
"-	c #567EC6",
";	c #557DC6",
">	c #71A6D9",
",	c #7DB9E3",
"'	c #76AEDD",
")	c #7DB9E4",
"!	c #7CB6E2",
"~	c #6493CF",
"{	c #74ABDB",
"]	c #5A83C8",
"^	c #618ECC",
"/	c #5378C3",
"(	c #76ADDD",
"_	c #6898D2",
":	c #547AC4",
"<	c #78B1DF",
"[	c #5B85C8",
"}	c #6798D2",
"|	c #6391CE",
"1	c #6797D1",
"2	c #5982C7",
"3	c #7BB6E2",
"4	c #7AB5E1",
"5	c #557BC5",
"6	c #6C9ED5",
"7	c #7CB7E3",
"8	c #5981C7",
"                             ",
"                             ",
"         .    +++  ++        ",
"         ..   +++ +++        ",
"         ...   @++++         ",
"         ....  #@+++         ",
"      .........$%++          ",
"       ..&*=-..;>,+   .      ",
"          %'     )++ ...     ",
"         ++       +!~..      ",
"         ++       @{]..      ",
"    +++++,         ^/.....   ",
"    +++++(         /......   ",
"      ++!_:       ...        ",
"      ++<[..      //         ",
"      ++  ..     }|1         ",
"      +   ..2<++,34!,++      ",
"          ..567++++++++      ",
"          ...8   +++         ",
"         .....    ++         ",
"         .. ...   +++        ",
"         .   ..    ++        ",
"                             ",
"                             ",
"                             "};
