/* XPM */
static char * nixos_logo_xpm[] = {
"35 30 19 1",
" 	c None",
".	c #5277C3",
"+	c #7EBAE4",
"@	c #6EA2D7",
"#	c #5379C4",
"$	c #7DB8E3",
"%	c #6696D1",
"&	c #5C86C9",
"*	c #76ADDD",
"=	c #567DC6",
"-	c #6B9DD4",
";	c #7CB6E2",
">	c #5378C3",
",	c #5F8BCB",
"'	c #7CB7E2",
")	c #6290CE",
"!	c #74ACDC",
"~	c #557CC5",
"{	c #7EB9E4",
"         ..     ++++    ++         ",
"        ....     ++++  ++++        ",
"        ....     ++++  ++++        ",
"         ....     ++++++++         ",
"          ...     ++++++++         ",
"          ....     ++++++          ",
"     ..............@++++           ",
"     ..............#$+++     ..    ",
"    ................%++++   ...    ",
"          +++        ++++   ...    ",
"         ++++         ++++ ....    ",
"         ++++          +++&...     ",
"        ++++           ++*....     ",
" ++++++++++             +=........ ",
" ++++++++++              ..........",
" +++++++++-             .......... ",
"  +++++++;>.            ....       ",
"     ++++,..           ....        ",
"     +++'....         ....         ",
"    ++++ ....         ....         ",
"    +++   ....        )))          ",
"    +++    ...&++++++++++++++++    ",
"     +     ....!++++++++++++++     ",
"           ....~{+++++++++++++     ",
"          ......     ++++          ",
"         ........     ++++         ",
"         .... ...     ++++         ",
"        ....  ....     ++++        ",
"        ....   ....     +++        ",
"         ..    ....     ++         "};
