/* XPM */
static char * nixos_logo_xpm[] = {
"105 91 3 1",
" 	c None",
".	c #5277C3",
"+	c #7EBAE4",
"                           ......               ++++++++++++             ++++++                          ",
"                          .......               ++++++++++++            +++++++                          ",
"                         .........               ++++++++++++           ++++++++                         ",
"                         ..........               +++++++++++          ++++++++++                        ",
"                        ...........               ++++++++++++        +++++++++++                        ",
"                        ............               +++++++++++        +++++++++++                        ",
"                         ...........               ++++++++++++      ++++++++++++                        ",
"                         ............               ++++++++++++     +++++++++++                         ",
"                          ............               +++++++++++    ++++++++++++                         ",
"                          ............               ++++++++++++  ++++++++++++                          ",
"                           ............               +++++++++++  ++++++++++++                          ",
"                            ...........               ++++++++++++++++++++++++                           ",
"                            ............               ++++++++++++++++++++++                            ",
"                             ...........               ++++++++++++++++++++++                            ",
"                             ............               ++++++++++++++++++++                             ",
"                              ............               +++++++++++++++++++                             ",
"                              ............               ++++++++++++++++++                              ",
"                 .......................................  +++++++++++++++++                              ",
"                ......................................... ++++++++++++++++                               ",
"                .......................................... ++++++++++++++               ..               ",
"               ........................................... ++++++++++++++               ..               ",
"              ............................................. ++++++++++++               ....              ",
"              .............................................  +++++++++++               .....             ",
"             ............................................... ++++++++++++             ......             ",
"             ................................................ +++++++++++            ........            ",
"            ................................................. ++++++++++++           ........            ",
"            .................................................. ++++++++++++         ..........           ",
"                                                               ++++++++++++         ...........          ",
"                              +++++++++++                       ++++++++++++       ............          ",
"                             ++++++++++++                        +++++++++++       ...........           ",
"                             +++++++++++                         ++++++++++++     ............           ",
"                            ++++++++++++                          +++++++++++    ............            ",
"                            +++++++++++                           ++++++++++++   ............            ",
"                           ++++++++++++                            ++++++++++++ ............             ",
"                          ++++++++++++                              ++++++++++  ...........              ",
"                          +++++++++++                               ++++++++++ ............              ",
"                         ++++++++++++                                ++++++++  ...........               ",
"                         +++++++++++                                 ++++++++ ............               ",
"                        ++++++++++++                                  ++++++ ............                ",
"                       ++++++++++++                                   ++++++ ............                ",
"    +++++++++++++++++++++++++++++++                                    ++++ ..........................   ",
"   +++++++++++++++++++++++++++++++                                      ++  ...........................  ",
"  +++++++++++++++++++++++++++++++                                       ++ ............................  ",
"  +++++++++++++++++++++++++++++++                                         .............................. ",
" +++++++++++++++++++++++++++++++                                          .............................. ",
" +++++++++++++++++++++++++++++++                                         ............................... ",
"  +++++++++++++++++++++++++++++                                          ............................... ",
"  +++++++++++++++++++++++++++++ .                                       ...............................  ",
"   +++++++++++++++++++++++++++ ...                                      ...............................  ",
"   ++++++++++++++++++++++++++  ....                                    ...............................   ",
"                 ++++++++++++ .....                                   ............                       ",
"                 +++++++++++ .......                                  ............                       ",
"                ++++++++++++ .......                                 ............                        ",
"               ++++++++++++ .........                                ...........                         ",
"               +++++++++++  .........                               ............                         ",
"              ++++++++++++ ...........                              ...........                          ",
"              +++++++++++  ............                            ............                          ",
"             ++++++++++++  ............                           ............                           ",
"             +++++++++++    ............                          ...........                            ",
"            ++++++++++++     ...........                         ............                            ",
"           ++++++++++++      ............                        ...........                             ",
"           +++++++++++        ...........                       ............                             ",
"           +++++++++++        ............                                                               ",
"           ++++++++++          ............ ++++++++++++++++++++++++++++++++++++++++++++++++++           ",
"            +++++++++          ............ +++++++++++++++++++++++++++++++++++++++++++++++++            ",
"             +++++++            ............ ++++++++++++++++++++++++++++++++++++++++++++++++            ",
"             +++++++             ...........  ++++++++++++++++++++++++++++++++++++++++++++++             ",
"              +++++              ............ ++++++++++++++++++++++++++++++++++++++++++++++             ",
"              ++++               ............. ++++++++++++++++++++++++++++++++++++++++++++              ",
"               +++               ............. +++++++++++++++++++++++++++++++++++++++++++               ",
"                +               ............... ++++++++++++++++++++++++++++++++++++++++++               ",
"                                ............... +++++++++++++++++++++++++++++++++++++++++                ",
"                               ................. ++++++++++++++++++++++++++++++++++++++++                ",
"                               .................               ++++++++++++                              ",
"                              ...................               ++++++++++++                             ",
"                             .....................               +++++++++++                             ",
"                             .....................               ++++++++++++                            ",
"                            .......................               +++++++++++                            ",
"                            .......................               ++++++++++++                           ",
"                           ............ ............               +++++++++++                           ",
"                          ............   ...........               ++++++++++++                          ",
"                          ............   ............               ++++++++++++                         ",
"                         ............     ............               +++++++++++                         ",
"                         ...........      ............               ++++++++++++                        ",
"                        ............       ............               +++++++++++                        ",
"                        ...........         ...........               +++++++++++                        ",
"                         ..........         ............               ++++++++++                        ",
"                         .........           ...........               +++++++++                         ",
"                          ........           ............               +++++++                          ",
"                           ......             ...........                ++++++                          ",
"                                                                                                         "};
