/* XPM */
static char * nixos_logo_xpm[] = {
"29 25 47 1",
" 	c None",
".	c #5277C3",
"+	c #7EBAE4",
"@	c #7DB8E3",
"#	c #6C9FD6",
"$	c #5982C8",
"%	c #74AADC",
"&	c #5176C3",
"*	c #5177C2",
"=	c #5379C4",
"-	c #6392CF",
";	c #7CB6E2",
">	c #6797D1",
",	c #6A9CD4",
"'	c #699AD3",
")	c #608CCC",
"!	c #7AB4E1",
"~	c #7EB9E4",
"{	c #7DB9E3",
"]	c #72A8DA",
"^	c #557BC4",
"/	c #7BB5E1",
"(	c #6391CE",
"_	c #5378C3",
":	c #6CA0D5",
"<	c #567CC5",
"[	c #7AB3E0",
"}	c #567EC5",
"|	c #6898D2",
"1	c #5880C7",
"2	c #6594CF",
"3	c #5377C3",
"4	c #5981C7",
"5	c #577FC6",
"6	c #5880C6",
"7	c #557CC5",
"8	c #7DB9E4",
"9	c #74ACDC",
"0	c #73AADB",
"a	c #75ADDC",
"b	c #7BB6E1",
"c	c #5379C3",
"d	c #6A9DD4",
"e	c #7CB7E2",
"f	c #5881C7",
"g	c #75ACDC",
"h	c #5E89CB",
"       ..    ++++   ++       ",
"       ...    +++  +++       ",
"       ...     +++++++       ",
"        ...    @+++++        ",
"        ....   #@++++        ",
"    ...........$%+++         ",
"    ....&*&....=-;++    .    ",
"        >,')     !+++  ...   ",
"        ~{{       +++  ...   ",
"       +++         ++]^..    ",
"       +++         +/(_..    ",
" ++++++++           :<...... ",
" +++++++[           }........",
" ++++++;|           ........ ",
"    +++]1.         ...       ",
"    ++{23..        ...       ",
"   +++  ...       456        ",
"   +++   ..7 8++~[90ab+++    ",
"    +    ..cde+++++++++++    ",
"         ...fg8++++++++++    ",
"        .....h    +++        ",
"        ......    +++        ",
"       ... ....    +++       ",
"       ...  ...    +++       ",
"       ..    ..     ++       "};
