/* XPM */
static char * nixos_logo_xpm[] = {
"33 28 37 1",
" 	c None",
".	c #5277C3",
"+	c #7EBAE4",
"@	c #5B84C9",
"#	c #7AB4E1",
"$	c #5379C4",
"%	c #6696D1",
"&	c #7EB9E4",
"*	c #5176C3",
"=	c #5176C2",
"-	c #577FC6",
";	c #76AEDD",
">	c #699AD3",
",	c #6DA1D6",
"'	c #6A9CD4",
")	c #7FBBE5",
"!	c #7EBBE4",
"~	c #75ACDC",
"{	c #547AC4",
"]	c #7DB8E3",
"^	c #6695D0",
"/	c #72A8DA",
"(	c #557BC5",
"_	c #5C86C9",
":	c #5278C3",
"<	c #7CB7E3",
"[	c #6391CE",
"}	c #70A5D8",
"|	c #628FCD",
"1	c #5276C3",
"2	c #557CC5",
"3	c #567DC5",
"4	c #7CB7E2",
"5	c #76AFDE",
"6	c #618FCD",
"7	c #6EA1D7",
"8	c #5378C3",
"        ...    ++++    ++        ",
"        ...     ++++  +++        ",
"        ....    ++++  +++        ",
"         ...     ++++++++        ",
"         ....     ++++++         ",
"     ............@#++++          ",
"     ............$%&+++    .     ",
"    .....*==*.....-;+++    ..    ",
"         >,,'       ++++  ....   ",
"         )!!         +++  ...    ",
"        ++++         +++~{...    ",
"        +++           +]^...     ",
" ++++++++++           !/(....... ",
" ++++++++&             _.........",
" ++++++++~             :........ ",
"    ++++<[.           ....       ",
"     +++}(..          ...        ",
"    ++++|1..         ....        ",
"    +++  ....        223         ",
"    +++   ...  ++++4~//~4+++     ",
"    ++    ...35++++++++++++++    ",
"          ....64++++++++++++     ",
"          ....$7   ++++++        ",
"         ......8    ++++         ",
"        ........     ++++        ",
"        .... ....     +++        ",
"        ...   ....    +++        ",
"         .    ....     ++        "};
